<?xml version="1.0" encoding="iso-8859-1"?>
<!-- Generator: Adobe Illustrator 19.0.0, SVG Export Plug-In . SVG Version: 6.00 Build 0)  -->
<svg version="1.1" id="Capa_1" xmlns="http://www.w3.org/2000/svg" xmlns:xlink="http://www.w3.org/1999/xlink" x="0px" y="0px"
	 viewBox="0 0 512.001 512.001" style="enable-background:new 0 0 512.001 512.001;" xml:space="preserve">
<polyline style="fill:#F1C400;" points="273.286,155.111 273.286,77.621 321.694,77.621 321.694,44.297 273.286,44.297 273.286,0 
	239.878,0 239.878,44.297 191.469,44.297 191.469,77.621 239.878,77.621 239.878,155.111 "/>
<polygon style="fill:#B8BBCB;" points="495.088,352.133 495.088,476.256 16.911,476.256 16.911,352.133 40.811,327.648 
	108.931,297.518 153.725,277.709 346.553,270.121 485.048,325.519 487.908,333.107 "/>
<polygon style="fill:#E6EFF6;" points="377.623,218.47 377.623,476.277 134.386,476.277 134.386,218.47 163.066,189.571 
	184.628,167.852 250.473,152.876 254.94,151.863 289.486,164.596 335.898,181.702 352.408,191.011 377.446,205.132 "/>
<path style="fill:#9E7C59;" d="M258.664,357.475h-3.196c-23.829,0-43.145,19.317-43.145,43.145v75.637h89.487v-75.637
	C301.81,376.793,282.493,357.475,258.664,357.475z"/>
<polygon style="fill:#CED6DB;" points="377.623,218.47 377.623,239.521 256.026,188.475 134.386,239.542 134.386,218.47 
	163.066,189.571 250.473,152.876 256.026,150.548 289.486,164.596 352.408,191.011 377.446,205.132 "/>
<polygon style="fill:#B00715;" points="116.465,226.012 256.022,167.419 395.58,226.012 395.58,188.089 256.022,129.496 
	116.465,188.089 "/>
<g>
	<polygon style="fill:#A3A5B2;" points="134.386,286.841 134.386,324.768 16.911,374.05 16.911,352.133 40.811,327.648 
		108.931,297.518 	"/>
	<polygon style="fill:#A3A5B2;" points="495.088,352.133 495.088,374.05 377.623,324.768 377.623,286.841 487.908,333.107 	"/>
</g>
<g>
	<polyline style="fill:#B00715;" points="134.384,302.846 0.324,359.095 0.324,321.169 134.384,264.921 	"/>
	<polyline style="fill:#B00715;" points="377.618,264.921 511.679,321.169 511.679,359.095 377.618,302.846 	"/>
</g>
<g>
	<path style="fill:#423E3E;" d="M78.226,365.825h-1.874c-13.976,0-25.305,11.329-25.305,25.305v44.361h52.484V391.13
		C103.531,377.155,92.202,365.825,78.226,365.825z"/>
	<path style="fill:#423E3E;" d="M435.65,365.825h-1.874c-13.976,0-25.305,11.329-25.305,25.305v44.361h52.484V391.13
		C460.955,377.155,449.625,365.825,435.65,365.825z"/>
</g>
<g>
	<path style="fill:#7C5C40;" d="M103.531,443.318H51.047c-4.324,0-7.828-3.505-7.828-7.828v-44.36
		c0-18.269,14.863-33.132,33.132-33.132h1.874c18.269,0,33.132,14.863,33.132,33.132v44.36
		C111.358,439.814,107.854,443.318,103.531,443.318z M58.874,427.663h36.829v-36.533c0-9.637-7.841-17.477-17.477-17.477h-1.874
		c-9.636,0-17.477,7.84-17.477,17.477C58.874,391.131,58.874,427.663,58.874,427.663z"/>
	<path style="fill:#7C5C40;" d="M460.955,443.318h-52.484c-4.324,0-7.828-3.505-7.828-7.828v-44.36
		c0-18.269,14.863-33.132,33.132-33.132h1.874c18.269,0,33.132,14.863,33.132,33.132v44.36
		C468.783,439.814,465.278,443.318,460.955,443.318z M416.299,427.663h36.829v-36.533c0-9.637-7.841-17.477-17.477-17.477h-1.874
		c-9.636,0-17.477,7.84-17.477,17.477V427.663z"/>
	<rect x="212.941" y="418.271" style="fill:#7C5C40;" width="89.484" height="15.655"/>
	<rect x="249.866" y="357.477" style="fill:#7C5C40;" width="15.655" height="123.8"/>
</g>
<circle style="fill:#423E3E;" cx="256.003" cy="270.592" r="31.832"/>
<path style="fill:#D8B75F;" d="M300.284,226.308c-11.334-11.324-26.989-18.337-44.283-18.337s-32.949,7.013-44.272,18.337
	c-11.334,11.334-18.348,26.989-18.348,44.283s7.013,32.949,18.348,44.283c11.324,11.324,26.979,18.337,44.272,18.337
	s32.949-7.013,44.283-18.337c11.334-11.334,18.337-26.989,18.337-44.283S311.618,237.642,300.284,226.308z M233.5,293.103
	c-5.761-5.761-9.33-13.714-9.33-22.512s3.569-16.751,9.33-22.512c5.761-5.751,13.724-9.32,22.501-9.32
	c8.798,0,16.751,3.569,22.512,9.33c5.761,5.761,9.32,13.714,9.32,22.502c0,8.788-3.559,16.74-9.32,22.501
	c-5.761,5.761-13.714,9.33-22.512,9.33C247.223,302.423,239.261,298.854,233.5,293.103z"/>
<g>
	<path style="fill:#D81335;" d="M318.621,270.591h-30.788c0-8.788-3.559-16.74-9.32-22.502v-0.01l21.771-21.771
		C311.618,237.642,318.621,253.297,318.621,270.591z"/>
	<path style="fill:#D81335;" d="M224.169,270.591c0,8.798,3.569,16.751,9.33,22.512l-21.771,21.771
		c-11.334-11.334-18.348-26.989-18.348-44.283L224.169,270.591L224.169,270.591z"/>
</g>
<g>
	<path style="fill:#61A6BD;" d="M278.512,293.103l21.771,21.771c-11.334,11.324-26.989,18.337-44.283,18.337v-30.788
		c8.798,0,16.751-3.569,22.512-9.33L278.512,293.103L278.512,293.103z"/>
	<path style="fill:#61A6BD;" d="M256.001,207.971v30.788c-8.777,0-16.74,3.569-22.502,9.32l-21.771-21.771
		C223.052,214.984,238.707,207.971,256.001,207.971z"/>
</g>
<g>
	<path style="fill:#FF85AE;" d="M233.499,248.079c-5.761,5.761-9.33,13.714-9.33,22.512H193.38c0-17.294,7.013-32.949,18.348-44.283
		L233.499,248.079z"/>
	<path style="fill:#FF85AE;" d="M287.832,270.591h30.788c0,17.294-7.003,32.949-18.337,44.283l-21.771-21.771v-0.01
		C284.273,287.331,287.832,279.379,287.832,270.591z"/>
</g>
<g>
	<path style="fill:#7C5C40;" d="M256.002,200.143c-38.845,0-70.448,31.602-70.448,70.448c0,38.845,31.602,70.448,70.448,70.448
		s70.448-31.602,70.448-70.448S294.846,200.143,256.002,200.143z M299.867,237.795c5.375,7.171,9.027,15.7,10.358,24.969H294.88
		c-1.031-5.132-3.057-9.905-5.865-14.117L299.867,237.795z M212.134,237.795l10.852,10.852c-2.809,4.211-4.834,8.985-5.865,14.116
		h-15.345C203.108,253.495,206.76,244.966,212.134,237.795z M212.135,303.387c-5.375-7.171-9.026-15.7-10.358-24.969h15.345
		c1.031,5.132,3.057,9.905,5.865,14.117L212.135,303.387z M248.174,216.366v15.344c-5.132,1.031-9.905,3.058-14.118,5.866
		l-10.852-10.852C230.375,221.35,238.905,217.698,248.174,216.366z M248.174,324.815c-9.269-1.332-17.798-4.982-24.969-10.358
		l10.852-10.852c4.211,2.809,8.986,4.834,14.117,5.865V324.815z M231.997,270.591c0-13.236,10.768-24.004,24.004-24.004
		c13.237,0,24.004,10.769,24.004,24.004s-10.768,24.004-24.004,24.004C242.765,294.595,231.997,283.827,231.997,270.591z
		 M263.829,324.815V309.47c5.132-1.031,9.905-3.057,14.117-5.865l10.852,10.852C281.626,319.832,273.097,323.484,263.829,324.815z
		 M277.946,237.577c-4.211-2.809-8.986-4.834-14.117-5.865v-15.344c9.269,1.332,17.798,4.982,24.969,10.357L277.946,237.577z
		 M299.867,303.387l-10.852-10.852c2.809-4.211,4.834-8.986,5.865-14.117h15.345C308.894,287.687,305.243,296.216,299.867,303.387z"
		/>
	<path style="fill:#7C5C40;" d="M309.637,486.695h-15.655v-86.074c0-19.475-15.844-35.318-35.318-35.318h-3.197
		c-19.474,0-35.318,15.844-35.318,35.318v86.074h-15.655v-86.074c0-28.107,22.866-50.973,50.973-50.973h3.197
		c28.107,0,50.973,22.867,50.973,50.973V486.695z"/>
</g>
<path style="fill:#423E3E;" d="M500.816,475.753H11.186c-6.012,0-10.884,4.873-10.884,10.884v25.363h511.398v-25.363
	C511.699,480.626,506.827,475.753,500.816,475.753z"/>
<g>
</g>
<g>
</g>
<g>
</g>
<g>
</g>
<g>
</g>
<g>
</g>
<g>
</g>
<g>
</g>
<g>
</g>
<g>
</g>
<g>
</g>
<g>
</g>
<g>
</g>
<g>
</g>
<g>
</g>
</svg>
